<svg xmlns="http://www.w3.org/2000/svg" viewBox="0 0 686 140" width="196" height="40"><path d="M158.91 53.846h-4.637V27.46h23.784v26.385h-4.636v-21.9H158.91v21.9ZM196.956 27.461c1.909 0 3.593.377 5.05 1.131 1.458.754 2.576 1.797 3.355 3.129.804 1.306 1.206 2.801 1.206 4.485 0 1.683-.402 3.191-1.206 4.523-.779 1.332-1.897 2.375-3.355 3.128-1.457.73-3.141 1.093-5.05 1.093h-7.237v8.896h-4.637V27.46h11.874Zm-.189 13.042c1.583 0 2.827-.39 3.732-1.169.929-.804 1.394-1.847 1.394-3.128 0-1.282-.452-2.312-1.357-3.09-.904-.78-2.161-1.17-3.769-1.17h-7.048v8.557h7.048ZM216.402 46.986l15.454-19.525h4.146v26.385h-4.523V34.284l-15.453 19.562h-4.147V27.46h4.523v19.525ZM265.861 49.511h3.92v10.743h-4.674v-6.408h-20.24v6.408h-4.674V49.51h2.224c.603-.452 1.143-1.068 1.62-1.847.478-.804.779-1.809.905-3.015l1.545-17.188h19.374v22.05Zm-4.674 0V31.796h-10.516l-1.093 12.853c-.075 1.106-.301 2.073-.678 2.902-.352.804-.779 1.458-1.282 1.96h13.569ZM290.799 27.461h4.9l-10.818 20.166c-.904 1.708-1.759 3.04-2.563 3.995-.779.955-1.633 1.659-2.563 2.11-.904.428-1.985.642-3.241.642-1.081 0-2.023-.176-2.827-.528V49.7a7.71 7.71 0 0 0 2.299.339c1.005 0 1.847-.226 2.525-.678.679-.453 1.257-1.119 1.734-1.998l.679-1.244-10.479-18.658h5.126l7.765 14.286 7.463-14.286ZM314.265 47.74l11.082-20.279h3.769v26.385h-4.523v-16.66l-9.348 16.66h-2.261l-9.197-16.472v16.472h-4.523V27.46h3.844l11.157 20.279ZM360.383 53.846h-4.975l-2.412-5.767h-12.854l-2.45 5.767h-4.824l11.496-26.385h4.523l11.496 26.385Zm-9.234-10.102-4.599-10.591-4.598 10.591h9.197ZM383.342 38.09V27.462h4.636v26.385h-4.636v-11.27h-14.511v11.27h-4.636V27.46h4.636v10.63h14.511ZM407.857 54.374c-2.764 0-5.252-.604-7.463-1.81-2.212-1.23-3.933-2.89-5.164-4.975-1.232-2.086-1.847-4.398-1.847-6.935 0-2.538.615-4.85 1.847-6.936 1.231-2.085 2.952-3.731 5.164-4.938 2.211-1.23 4.699-1.846 7.463-1.846 2.764 0 5.239.615 7.425 1.846 2.211 1.207 3.933 2.853 5.164 4.938 1.256 2.086 1.885 4.398 1.885 6.936 0 2.537-.629 4.85-1.885 6.935-1.231 2.086-2.953 3.744-5.164 4.975-2.186 1.206-4.661 1.81-7.425 1.81Zm0-4.373c1.859 0 3.53-.414 5.013-1.244 1.507-.829 2.688-1.947 3.543-3.354.854-1.432 1.281-3.016 1.281-4.75 0-1.733-.427-3.304-1.281-4.71-.855-1.433-2.036-2.564-3.543-3.393-1.483-.83-3.154-1.244-5.013-1.244-1.885 0-3.581.415-5.089 1.244a9.277 9.277 0 0 0-3.505 3.392c-.829 1.407-1.244 2.978-1.244 4.712 0 1.733.415 3.316 1.244 4.749.854 1.407 2.023 2.525 3.505 3.354 1.508.83 3.204 1.244 5.089 1.244ZM443.292 46.986l15.454-19.525h4.146v26.385h-4.523V34.284l-15.453 19.562h-4.147V27.46h4.523v19.525ZM493.692 54.374c-2.714 0-5.164-.604-7.35-1.81-2.186-1.23-3.907-2.89-5.164-4.975-1.231-2.086-1.846-4.398-1.846-6.935 0-2.538.615-4.85 1.846-6.936 1.257-2.085 2.978-3.731 5.164-4.938 2.186-1.23 4.636-1.846 7.35-1.846 2.237 0 4.285.452 6.144 1.357 1.86.904 3.405 2.098 4.636 3.58 1.232 1.483 2.061 3.066 2.488 4.75h-4.787c-.578-1.508-1.596-2.765-3.053-3.77-1.457-1.03-3.267-1.545-5.428-1.545-1.834 0-3.492.415-4.975 1.244a9.27 9.27 0 0 0-3.505 3.392c-.83 1.432-1.244 3.003-1.244 4.712 0 1.708.414 3.279 1.244 4.711a9.27 9.27 0 0 0 3.505 3.392c1.483.83 3.141 1.244 4.975 1.244 2.237 0 4.084-.502 5.541-1.507 1.483-1.005 2.525-2.275 3.129-3.807h4.786c-.427 1.733-1.268 3.342-2.525 4.824-1.231 1.458-2.789 2.639-4.674 3.543-1.884.88-3.97 1.32-6.257 1.32ZM534.124 49.511h3.92v10.743h-4.673v-6.408H513.13v6.408h-4.674V49.51h2.224c.603-.452 1.143-1.068 1.621-1.847.477-.804.779-1.809.904-3.015l1.546-17.188h19.373v22.05Zm-4.673 0V31.796h-10.517l-1.093 12.853c-.075 1.106-.301 2.073-.678 2.902-.352.804-.779 1.458-1.282 1.96h13.57ZM547.317 42.538v6.973h16.057v4.335h-20.693V27.46h20.316v4.335h-15.68v6.483h13.984v4.26h-13.984ZM568.056 54.374c-.754 0-1.508-.076-2.262-.227v-4.372h1.056c1.281 0 2.324-.39 3.128-1.168.83-.78 1.307-1.973 1.433-3.581l1.394-17.565h19.826v26.385h-4.636v-21.9h-10.968l-1.056 13.608c-.226 2.84-1.068 5.025-2.525 6.558-1.432 1.508-3.229 2.262-5.39 2.262ZM623.898 53.846h-4.975l-2.413-5.767h-12.853l-2.45 5.767h-4.824l11.496-26.385h4.523l11.496 26.385Zm-9.235-10.102-4.598-10.591-4.598 10.591h9.196ZM646.857 38.09V27.462h4.636v26.385h-4.636v-11.27h-14.511v11.27h-4.637V27.46h4.637v10.63h14.511ZM671.372 54.374c-2.765 0-5.252-.604-7.464-1.81-2.211-1.23-3.932-2.89-5.163-4.975-1.232-2.086-1.847-4.398-1.847-6.935 0-2.538.615-4.85 1.847-6.936 1.231-2.085 2.952-3.731 5.163-4.938 2.212-1.23 4.699-1.846 7.464-1.846 2.764 0 5.239.615 7.425 1.846 2.211 1.207 3.932 2.853 5.164 4.938 1.256 2.086 1.884 4.398 1.884 6.936 0 2.537-.628 4.85-1.884 6.935-1.232 2.086-2.953 3.744-5.164 4.975-2.186 1.206-4.661 1.81-7.425 1.81Zm0-4.373c1.859 0 3.53-.414 5.013-1.244 1.507-.829 2.688-1.947 3.543-3.354.854-1.432 1.281-3.016 1.281-4.75 0-1.733-.427-3.304-1.281-4.71-.855-1.433-2.036-2.564-3.543-3.393-1.483-.83-3.154-1.244-5.013-1.244-1.885 0-3.581.415-5.089 1.244a9.27 9.27 0 0 0-3.505 3.392c-.83 1.407-1.244 2.978-1.244 4.712 0 1.733.414 3.316 1.244 4.749.854 1.407 2.022 2.525 3.505 3.354 1.508.83 3.204 1.244 5.089 1.244ZM172.441 93.595c1.282.402 2.387 1.156 3.317 2.262.93 1.08 1.395 2.487 1.395 4.221a7.194 7.194 0 0 1-1.093 3.845c-.729 1.156-1.785 2.073-3.167 2.751-1.356.679-2.94 1.018-4.749 1.018h-13.871V81.307h13.57c1.608 0 3.028.314 4.259.943 1.231.603 2.173 1.432 2.827 2.487a6.353 6.353 0 0 1 1.018 3.506c0 1.432-.34 2.588-1.018 3.468a5.779 5.779 0 0 1-2.488 1.884Zm-13.531-8.292v6.671h8.593c1.156 0 2.074-.314 2.752-.942.704-.628 1.055-1.432 1.055-2.412 0-.955-.351-1.747-1.055-2.375-.678-.628-1.596-.942-2.752-.942h-8.593Zm8.895 18.394c1.457 0 2.601-.365 3.43-1.093.854-.729 1.282-1.684 1.282-2.865 0-1.181-.428-2.123-1.282-2.827-.829-.729-1.973-1.093-3.43-1.093h-8.895v7.878h8.895ZM206.215 108.22c-2.714 0-5.164-.603-7.35-1.809-2.186-1.232-3.908-2.89-5.164-4.976-1.231-2.085-1.847-4.397-1.847-6.935 0-2.538.616-4.85 1.847-6.936 1.256-2.085 2.978-3.731 5.164-4.937 2.186-1.232 4.636-1.847 7.35-1.847 2.236 0 4.284.452 6.144 1.357 1.859.904 3.405 2.098 4.636 3.58 1.231 1.483 2.06 3.066 2.488 4.75h-4.787c-.578-1.508-1.596-2.764-3.053-3.77-1.458-1.03-3.267-1.545-5.428-1.545-1.834 0-3.493.415-4.975 1.244a9.273 9.273 0 0 0-3.506 3.392c-.829 1.433-1.244 3.003-1.244 4.712 0 1.709.415 3.279 1.244 4.711a9.277 9.277 0 0 0 3.506 3.393c1.482.829 3.141 1.243 4.975 1.243 2.236 0 4.083-.502 5.541-1.507 1.482-1.005 2.525-2.274 3.128-3.807h4.787c-.427 1.734-1.269 3.342-2.525 4.824-1.232 1.458-2.79 2.639-4.674 3.544-1.885.879-3.97 1.319-6.257 1.319ZM235.452 107.692h-4.636v-21.9h-9.498v-4.485h23.671v4.486h-9.537v21.899ZM266.8 81.307h4.9l-10.818 20.166c-.905 1.709-1.759 3.04-2.563 3.995-.779.955-1.633 1.659-2.563 2.111-.905.427-1.985.641-3.242.641-1.08 0-2.023-.176-2.827-.528v-4.146a7.725 7.725 0 0 0 2.3.339c1.005 0 1.847-.226 2.525-.678.678-.453 1.256-1.119 1.734-1.998l.678-1.244-10.478-18.658h5.126l7.765 14.286 7.463-14.286ZM295.86 103.357h3.92V114.1h-4.673v-6.408h-20.241v6.408h-4.674v-10.743h2.224c.603-.452 1.143-1.068 1.621-1.846.477-.805.779-1.81.904-3.016l1.546-17.188h19.373v22.05Zm-4.673 0V85.642H280.67l-1.093 12.853c-.075 1.106-.301 2.073-.678 2.902-.352.805-.779 1.458-1.282 1.96h13.57ZM308.94 100.832l15.454-19.525h4.146v26.385h-4.523V88.13l-15.454 19.562h-4.146V81.307h4.523v19.525ZM340.08 100.832l15.454-19.525h4.146v26.385h-4.523V88.13l-15.454 19.562h-4.146V81.307h4.523v19.525ZM376.76 108.22c-.754 0-1.507-.076-2.261-.226v-4.373h1.055c1.282 0 2.324-.389 3.129-1.168.829-.779 1.306-1.973 1.432-3.58l1.394-17.566h19.827v26.385h-4.637v-21.9h-10.968L384.676 99.4c-.227 2.839-1.068 5.025-2.526 6.558-1.432 1.508-3.229 2.262-5.39 2.262ZM412.965 96.384v6.973h16.056v4.335h-20.693V81.307h20.317v4.335h-15.68v6.483h13.983v4.26h-13.983ZM439.32 107.692h-4.636V81.307h23.783v26.385h-4.636v-21.9H439.32v21.9ZM470.129 96.384v6.973h16.057v4.335h-20.693V81.307h20.316v4.335h-15.68v6.483h13.984v4.26h-13.984Zm1.131-17.489c-.729 0-1.332-.226-1.81-.678-.477-.453-.716-1.018-.716-1.697 0-.653.239-1.206.716-1.658a2.536 2.536 0 0 1 1.81-.716c.728 0 1.331.226 1.809.678.477.453.716 1.018.716 1.697 0 .678-.239 1.243-.716 1.696-.478.452-1.081.678-1.809.678Zm8.782 0c-.729 0-1.332-.226-1.809-.678-.478-.453-.717-1.018-.717-1.697 0-.678.239-1.243.717-1.696.477-.452 1.08-.678 1.809-.678.703 0 1.294.239 1.771.716.503.452.754 1.005.754 1.659 0 .678-.239 1.243-.716 1.696-.477.452-1.08.678-1.809.678ZM503.985 94.311l9.762 13.381h-5.428l-7.01-10.026-7.011 10.026h-5.315l9.725-13.38-9.235-13.005h5.428l6.558 9.65 6.521-9.65h5.277l-9.272 13.004ZM522.432 100.832l15.453-19.525h4.147v26.385h-4.524V88.13l-15.453 19.562h-4.147V81.307h4.524v19.525ZM568.196 91.937v-10.63h4.637v26.385h-4.637v-11.27h-14.511v11.27h-4.636V81.307h4.636v10.63h14.511ZM604.132 107.692h-4.976l-2.412-5.767h-12.853l-2.45 5.767h-4.825l11.496-26.385h4.524l11.496 26.385Zm-9.235-10.101-4.598-10.592-4.599 10.592h9.197ZM37.19 3.415C48.82 7.683 58.585 20.772 60.45 42.683h.862l1.436-30.874C58.01 6.26 48.677 0 34.605 0 12.062 0 0 20.203 0 40.833 0 67.44 9.477 93.05 25.128 110.55h4.02c17.375 0 34.462-16.647 36.903-43.537h-.861c-5.313 27.886-20.964 32.297-30.441 33.435-11.918-16.22-18.81-36.992-18.81-55.203 0-22.48 6.317-34.289 21.25-41.83Zm66.769 100.731-7.18 3.984v.854h30.872v-.854l-7.179-3.984V6.545l8.759-4.838V.854H74.092v.853l9.046 4.838c-.143 29.878-.574 52.357-2.153 69.288-3.734 38.273-11.344 47.521-19.241 47.521-5.888 0-10.913-4.695-15.795-10.102l-.862.854L66.338 140c4.308-4.268 10.195-13.232 13.785-26.179 4.882-17.927 6.749-47.662 7.897-109.695h15.939v100.02Z"/></svg>